PathFileType	4	(X/Y/Z)	Patient4_TMGait_0pt3_01_left_05.trc.trc
DataRate	CameraRate	NumFrames	NumMarkers	Units	OrigDataRate	OrigDataStartFrame	OrigNumFrames
52.830188679245	52.830188679245	6	33	mm	52.830188679245	18	       141
Frame#	Time	Sacral			L.Shoulder			Chest			R.Shoulder			Neck			R.ASIS			L.ASIS			R.Thigh.Superior			R.Thigh.Lateral			R.Thigh.Inferior			R.Patella			L.Thigh.Superior			L.Thigh.Lateral			L.Thigh.Inferior			L.Patella			L.Shank.Superior			L.Shank.Lateral			L.Shank.Inferior			R.Shank.Superior			R.Shank.Lateral			R.Shank.Inferior			R.Heel			R.Midfoot.Superior			R.Midfoot.Lateral			R.Toe			L.Heel			L.Midfoot.Lateral			L.Midfoot.Superior			L.Toe			L.Elbow			L.Wrist			R.Elbow			R.Wrist			
		X1	Y1	Z1	X2	Y2	Z2	X3	Y3	Z3	X4	Y4	Z4	X5	Y5	Z5	X6	Y6	Z6	X7	Y7	Z7	X8	Y8	Z8	X9	Y9	Z9	X10	Y10	Z10	X11	Y11	Z11	X12	Y12	Z12	X13	Y13	Z13	X14	Y14	Z14	X15	Y15	Z15	X16	Y16	Z16	X17	Y17	Z17	X18	Y18	Z18	X19	Y19	Z19	X20	Y20	Z20	X21	Y21	Z21	X22	Y22	Z22	X23	Y23	Z23	X24	Y24	Z24	X25	Y25	Z25	X26	Y26	Z26	X27	Y27	Z27	X28	Y28	Z28	X29	Y29	Z29	X30	Y30	Z30	X31	Y31	Z31	X32	Y32	Z32	X33	Y33	Z33	

18	8.991785714286	802.761774560733	993.794203947401	604.539656571754	947.072801778939	1422.477425789178	399.093366397785	1066.927883980746	1363.350928496873	551.321417532169	998.427488671918	1440.493174214323	729.985023333641	947.413851886010	1489.476618210280	554.311555280213	1041.596660757122	937.778039755239	703.663722478648	1007.909710243830	961.012191471198	430.651742707208	1065.549063453804	729.505840108541	664.256183949252	978.707651913726	619.121265914271	719.890972532181	1047.627629300242	567.394948822607	635.035335860208	1038.838363442088	474.720438530953	636.361082232144	1094.341580964083	776.765077136635	467.013620448275	1053.550256939893	649.956906676353	384.467623782906	1148.476338146995	589.267475520593	454.997631936818	1174.455227233194	517.673374382719	446.843882565370	1145.408871596555	443.781822131237	430.206743472738	1060.077043723988	330.700512804107	368.318624654224	1125.186597493429	214.651527011538	420.732644648717	995.776718167044	389.313267150195	639.983251886097	909.504905476601	293.511059443013	695.393071438257	936.269422975074	197.416366959727	628.437799942211	783.789068763093	43.388082519643	588.051983573821	952.735169116823	96.416190994592	635.763720778726	860.929675995931	37.056178130204	668.408827122070	1069.416963561471	43.428539582103	674.165952891944	1012.145028227301	45.392136553017	445.915448308269	1087.076066064103	49.591536474433	366.863211454858	1165.451815206247	117.555162568038	395.193502605246	1295.354266073137	77.706086163958	365.919635628704	843.038544295039	1079.850284509736	310.343106168418	842.152091659126	820.474700227295	322.498645215321	1117.091897191286	1121.114681367980	856.483268132466	1366.250626650239	1115.057910598486	800.339376078738	
19	9.010714285714	802.889944446175	994.702523190528	604.339206939723	944.574399939775	1422.792073093125	397.041560581598	1066.419084143133	1363.745033080611	547.764037026840	1000.235284145541	1441.545812060864	726.999124395340	946.794778607081	1489.868738030903	552.032113719552	1042.009180690405	937.944061578782	701.667377746270	1006.660384188965	961.179166933608	428.819302691361	1062.789733450495	728.900126453287	662.795822766291	974.533066457437	619.660108523103	719.287123518389	1042.152307792010	566.896708766158	634.317797563064	1032.044481385526	474.816521472139	635.746523410003	1091.877798520912	775.515358090849	463.825439066133	1048.355429649613	649.017462801327	381.773306906140	1143.416882114863	587.520449964288	451.285668038432	1168.789253335093	516.875468778304	443.794222041290	1141.015291867662	443.309876003147	427.534520563480	1058.290545036159	328.410659094459	365.391450395047	1125.463367817110	213.766805415240	418.406269942378	989.458373619041	389.580008460806	639.663706984497	903.404360720357	293.686134739920	695.351971130499	930.233883911142	197.584997340044	628.400443404004	777.980887145023	43.344560531979	588.110541627296	946.939934099007	96.425765656151	635.827097431257	855.139595934185	37.037370398095	668.559754926406	1063.636705179710	43.491332046820	674.126696820861	1015.151521288492	43.376584558461	443.300821037991	1090.644181839300	47.854018844238	364.729128790463	1168.171626420125	116.589429245086	393.331215564806	1298.735692219509	77.716901408632	365.178164554030	831.985276603663	1083.158094782320	310.058981867774	827.357815011282	823.939675076146	322.524671406638	1126.878159246819	1126.780870912808	853.658422413844	1373.856889082121	1135.930180124597	791.034428541019	
20	9.029642857143	803.158161609462	995.212112536355	603.895153449754	942.359641244816	1422.731384436108	394.731016821637	1066.012143546762	1363.790755050539	544.070797689505	1001.929597943043	1442.226300557296	723.777617451381	946.290585449335	1489.916638037674	549.473127036877	1042.601021363533	937.836094742244	699.481524232347	1005.535833411213	960.932255065554	426.815349947867	1060.534572458464	728.153418891552	661.176684823500	971.004406352153	619.958309071237	718.506027771396	1037.336163412032	566.227552546137	633.411177072520	1026.011780023906	474.678972288259	634.983750347665	1089.482325811303	773.756091132156	460.255814122721	1042.971414871929	647.558949927677	379.052200855648	1138.410922547713	585.367853757483	447.360295269672	1162.941726672482	515.432623737298	440.595846007068	1136.227547852709	442.226892439835	424.732221071890	1055.418295555180	325.876950303060	362.766843605692	1124.381157770257	212.434882397492	416.158004142866	983.729772639809	389.615916859659	639.183917161183	897.751279236593	293.791590064463	695.211748649864	924.452077769540	197.632236507672	628.297476540172	772.187773909854	43.310468281792	588.156946754650	941.172028361114	96.427645996381	635.864606176096	849.358531928540	37.010095288696	668.679589826441	1057.865007878160	43.530672448504	674.086460391827	1016.148362901218	41.600787936312	441.245064319593	1091.900265368009	45.997156001916	362.867434057629	1169.022837800070	115.040887386141	391.463346823366	1299.913366021827	76.480948089103	363.935580830239	822.387696555628	1085.834877505911	309.800840926075	814.473165089648	826.690190069141	322.499212455996	1136.216444403197	1132.141084933658	850.567272376415	1380.198343354250	1155.563911350200	782.117778283993	
21	9.048571428571	803.558941005019	995.344384264484	603.215507516267	940.424547270083	1422.314172535869	392.160032576009	1065.707289513365	1363.516834547533	540.243854634006	1003.513638391112	1442.548859136235	720.335262545260	945.908786794732	1489.646627696085	546.638910213522	1043.376877283812	937.473929433325	697.094448629315	1004.508039803511	960.317501890668	424.636771114499	1058.816686139678	727.269753689005	659.369046465161	968.169240240401	620.007622896968	717.509114605891	1033.238604388384	565.389383758870	632.271914533929	1020.803808090796	474.290218700024	634.028475519764	1087.213764897915	771.638433645671	456.380042518385	1037.569395553971	645.706942724504	376.366750927619	1133.646383259182	582.981964563776	443.272870467247	1157.135265481931	513.505549343832	437.286455525836	1131.279638939131	440.646880556233	421.842695726656	1051.683811148251	323.191063167930	360.468590547771	1122.141300254162	210.730579137868	414.045297199319	978.620909699333	389.412648267322	638.512018133770	892.567972158743	293.834984525612	694.952226261257	918.940458156587	197.560395743739	628.118362997573	766.414020910241	43.287223023572	588.193030121259	935.441169049408	96.423003355547	635.873565354071	843.591915675718	36.975824661846	668.766201855716	1052.104518460863	43.544811977168	674.047513075330	1015.304384072597	40.095596443932	439.788593037787	1091.025752298844	44.077854678387	361.326094388848	1168.169970821456	112.995291651587	389.664298066248	1299.079930757450	74.123498828411	362.282819816148	814.321163562729	1087.795940023565	309.488732555070	803.554277434794	828.644539969834	322.391650556066	1145.044836988194	1137.106422941568	847.186126059050	1385.423574369690	1173.773870970011	773.621802454928	
22	9.067500000000	804.078063441065	995.158688672533	602.305515359245	938.751420273235	1421.595354856410	389.341755313951	1065.504994627025	1362.980757075018	536.285743521032	1005.009544751112	1442.558145320411	716.692162254979	945.656499166737	1489.113937446937	543.549295433246	1044.331594044257	936.897231664404	694.492049650209	1003.556533485065	959.423278035779	422.274320096419	1057.622305118700	726.264091629277	657.343619035866	966.015645548023	619.824302438678	716.265189020225	1029.859597056191	564.400763262162	630.868943879086	1016.412810369935	473.655977013002	632.846626002344	1085.145318959773	769.357855107871	452.300436876106	1032.364013775167	643.631511528905	373.764653189970	1129.315038472535	580.555029281136	439.092256351150	1151.610138096154	511.296313922135	433.916751242211	1126.428091837302	438.724905540047	418.921064593237	1047.389693567202	320.483618081281	358.471948387739	1118.999078814545	208.776104917246	412.114160927995	974.111049465192	388.985771601703	637.628099171971	887.836787529952	293.834321056903	694.561099090608	913.691960439014	197.385539716195	627.857393300417	760.661747995538	43.279124847832	588.221144162459	929.754042030560	96.413669838335	635.853609770668	837.844264749378	36.938493171911	668.821147587066	1046.357047466055	43.532164756971	674.011873407385	1012.865483227212	38.894429358815	438.897536656752	1088.316542223004	42.188001334403	360.116276207864	1165.850690641679	110.605361276749	388.007730965576	1296.525488280620	70.891403697437	360.370588818478	807.790818689273	1089.020250000536	309.037005640437	794.654604989644	829.789994700566	322.151942991960	1153.310577045631	1141.617992814824	843.505961559043	1389.689966034150	1190.435727557921	765.564076781681	
23	9.086428571429	804.695542682764	994.741470177646	601.166232153244	937.311079928320	1420.657711358242	386.304447377498	1065.404842747176	1362.259309999935	532.201838271625	1006.453142940390	1442.320143080230	712.874817316821	945.538174232668	1488.393364455405	540.241335532929	1045.448068792234	936.159015848572	691.660212593294	1002.670854762873	958.365391199130	419.713798498317	1056.892365819421	725.160801218408	655.077691796193	964.475269433647	619.446357071169	714.755611452839	1027.142772101149	563.294451238791	629.189126135978	1012.767138559600	472.803813011445	631.421640525652	1083.356905006591	767.127797505820	448.136318341669	1027.597142152817	641.522891244732	371.271817662444	1125.594674287251	578.273181410970	434.904204720275	1146.603362703632	509.019677836091	430.551321488018	1121.927624487942	436.634360370414	416.033805603179	1042.883549801403	317.903148023396	356.715740187879	1115.237241811318	206.718957783420	410.399438633452	970.136252015848	388.372306840957	636.528919299966	883.505385527199	293.816628757028	694.036023035200	908.678960896841	197.135262145678	627.515326022827	754.931713705464	43.294954197349	588.244394529423	924.114103532108	96.401901931399	635.807017720471	832.119383949843	36.904861794902	668.848662857392	1040.624420691079	43.489881395012	673.981611338801	1009.132200710347	38.015376676112	438.479645648295	1084.149642895880	40.432838996289	359.218468772597	1162.350178257381	108.066153967516	386.560667092923	1292.605974548108	67.121450786696	358.384657927236	802.735135344058	1089.547487857343	308.367133924840	787.817907112113	830.174275177179	321.714789880642	1160.977952638819	1145.646388234107	839.534366495221	1393.163474763122	1205.481103325438	757.950099513213	
